<svg xmlns="http://www.w3.org/2000/svg" xmlns:xlink="http://www.w3.org/1999/xlink" width="170" zoomAndPan="magnify" viewBox="0 0 127.5 35.25" height="47" preserveAspectRatio="xMidYMid meet" version="1.0"><defs><g/><clipPath id="2389a1fca3"><path d="M 112 14 L 125.925781 14 L 125.925781 27 L 112 27 Z M 112 14 " clip-rule="nonzero"/></clipPath><clipPath id="9db37dece4"><path d="M 2.632812 0.5 L 36.285156 0.5 L 36.285156 34.152344 L 2.632812 34.152344 Z M 2.632812 0.5 " clip-rule="nonzero"/></clipPath><clipPath id="212b03225a"><path d="M 19.460938 0.5 C 10.164062 0.5 2.632812 8.03125 2.632812 17.324219 C 2.632812 26.617188 10.164062 34.152344 19.460938 34.152344 C 28.753906 34.152344 36.285156 26.617188 36.285156 17.324219 C 36.285156 8.03125 28.753906 0.5 19.460938 0.5 " clip-rule="nonzero"/></clipPath><clipPath id="85fce2b318"><path d="M 19 8.429688 L 32.914062 8.429688 L 32.914062 26.121094 L 19 26.121094 Z M 19 8.429688 " clip-rule="nonzero"/></clipPath><clipPath id="e677510ae7"><path d="M 8.585938 8.429688 L 23 8.429688 L 23 26.121094 L 8.585938 26.121094 Z M 8.585938 8.429688 " clip-rule="nonzero"/></clipPath></defs><g fill="#ffffff" fill-opacity="1"><g transform="translate(44.052693, 26.22581)"><g><path d="M 7.980469 0.0976562 L 11.25 0.0976562 L 19.78125 -16.679688 L 19.78125 -16.824219 L 16.105469 -16.824219 L 10.863281 -6.175781 L 9.664062 -2.789062 L 8.507812 -6.152344 L 3.269531 -16.824219 L -0.410156 -16.824219 L -0.410156 -16.730469 Z M 7.980469 0.0976562 "/></g></g></g><g fill="#ffffff" fill-opacity="1"><g transform="translate(64.073779, 26.22581)"><g><path d="M 0.960938 -13.125 L 4.039062 -13.125 L 4.039062 -16.824219 L 0.960938 -16.824219 Z M 0.960938 0 L 4.039062 0 L 4.039062 -11.441406 L 0.960938 -11.441406 Z M 0.960938 0 "/></g></g></g><g fill="#ffffff" fill-opacity="1"><g transform="translate(69.794091, 26.22581)"><g><path d="M 6.058594 0.191406 C 7.523438 0.289062 9.0625 -0.167969 10 -1.585938 L 10.3125 0 L 12.90625 0 L 12.90625 -16.824219 L 9.804688 -16.824219 L 9.804688 -10.046875 C 9.132812 -11.054688 7.761719 -11.632812 6.511719 -11.632812 C 2.714844 -11.632812 0.359375 -9.15625 0.359375 -5.71875 C 0.359375 -2.738281 2.140625 -0.0703125 6.058594 0.191406 Z M 6.683594 -2.523438 C 4.542969 -2.523438 3.484375 -4.207031 3.484375 -5.71875 C 3.484375 -7.308594 4.542969 -8.917969 6.683594 -8.917969 C 8.726562 -8.917969 9.925781 -7.5 9.925781 -5.695312 C 9.925781 -3.894531 8.675781 -2.523438 6.683594 -2.523438 Z M 6.683594 -2.523438 "/></g></g></g><g fill="#ffffff" fill-opacity="1"><g transform="translate(84.359251, 26.22581)"><g><path d="M 6.058594 0.191406 C 7.523438 0.289062 9.0625 -0.167969 10 -1.585938 L 10.3125 0 L 12.90625 0 L 12.90625 -16.824219 L 9.804688 -16.824219 L 9.804688 -10.046875 C 9.132812 -11.054688 7.761719 -11.632812 6.511719 -11.632812 C 2.714844 -11.632812 0.359375 -9.15625 0.359375 -5.71875 C 0.359375 -2.738281 2.140625 -0.0703125 6.058594 0.191406 Z M 6.683594 -2.523438 C 4.542969 -2.523438 3.484375 -4.207031 3.484375 -5.71875 C 3.484375 -7.308594 4.542969 -8.917969 6.683594 -8.917969 C 8.726562 -8.917969 9.925781 -7.5 9.925781 -5.695312 C 9.925781 -3.894531 8.675781 -2.523438 6.683594 -2.523438 Z M 6.683594 -2.523438 "/></g></g></g><g fill="#ffffff" fill-opacity="1"><g transform="translate(98.924411, 26.22581)"><g><path d="M 6.34375 0.191406 C 8.4375 0.191406 10.550781 -0.410156 11.777344 -2.691406 L 9.253906 -3.582031 C 8.75 -2.667969 7.667969 -2.425781 6.609375 -2.425781 C 5.289062 -2.425781 3.75 -2.910156 3.460938 -4.589844 L 12.402344 -4.589844 C 12.425781 -4.855469 12.425781 -5.121094 12.425781 -5.359375 C 12.425781 -9.15625 10.117188 -11.632812 6.417969 -11.632812 C 2.835938 -11.632812 0.289062 -9.230469 0.289062 -5.71875 C 0.289062 -2.210938 2.8125 0.191406 6.34375 0.191406 Z M 3.460938 -6.921875 C 3.773438 -8.292969 5.046875 -9.039062 6.441406 -9.039062 C 7.714844 -9.039062 9.109375 -8.363281 9.421875 -6.921875 Z M 3.460938 -6.921875 "/></g></g></g><g clip-path="url(#2389a1fca3)"><g fill="#ffffff" fill-opacity="1"><g transform="translate(112.552206, 26.22581)"><g><path d="M -0.480469 0 L 3.171875 0 L 5.289062 -2.5 L 6.199219 -3.773438 L 7.066406 -2.523438 L 9.253906 0 L 12.835938 0 L 12.835938 -0.046875 L 8.074219 -5.695312 L 12.738281 -11.394531 L 12.738281 -11.441406 L 8.964844 -11.441406 L 6.851562 -8.675781 L 6.175781 -7.570312 L 5.527344 -8.652344 L 3.316406 -11.441406 L -0.410156 -11.441406 L -0.410156 -11.417969 L 4.300781 -5.695312 L -0.480469 -0.0976562 Z M -0.480469 0 "/></g></g></g></g><g clip-path="url(#9db37dece4)"><g clip-path="url(#212b03225a)"><path fill="#ffffff" d="M 2.632812 0.5 L 36.285156 0.5 L 36.285156 34.152344 L 2.632812 34.152344 Z M 2.632812 0.5 " fill-opacity="1" fill-rule="nonzero"/></g></g><g clip-path="url(#85fce2b318)"><path fill="#8c52ff" d="M 32.546875 16.742188 L 25.296875 8.742188 C 25.140625 8.574219 24.925781 8.476562 24.695312 8.476562 L 19.863281 8.476562 C 19.546875 8.476562 19.257812 8.664062 19.125 8.949219 C 18.996094 9.238281 19.050781 9.578125 19.261719 9.8125 L 26.027344 17.277344 L 19.261719 24.738281 C 19.050781 24.972656 18.996094 25.3125 19.125 25.601562 C 19.257812 25.890625 19.546875 26.074219 19.863281 26.074219 L 24.695312 26.074219 C 24.925781 26.074219 25.140625 25.976562 25.296875 25.8125 L 32.546875 17.8125 C 32.820312 17.507812 32.820312 17.042969 32.546875 16.742188 Z M 32.546875 16.742188 " fill-opacity="1" fill-rule="nonzero"/></g><g clip-path="url(#e677510ae7)"><path fill="#8c52ff" d="M 22.074219 16.742188 L 14.824219 8.742188 C 14.667969 8.574219 14.453125 8.476562 14.222656 8.476562 L 9.390625 8.476562 C 9.074219 8.476562 8.785156 8.664062 8.652344 8.949219 C 8.523438 9.238281 8.578125 9.578125 8.789062 9.8125 L 15.554688 17.277344 L 8.789062 24.738281 C 8.578125 24.972656 8.523438 25.3125 8.652344 25.601562 C 8.785156 25.890625 9.074219 26.074219 9.390625 26.074219 L 14.222656 26.074219 C 14.453125 26.074219 14.667969 25.976562 14.824219 25.8125 L 22.074219 17.8125 C 22.347656 17.507812 22.347656 17.042969 22.074219 16.742188 Z M 22.074219 16.742188 " fill-opacity="1" fill-rule="nonzero"/></g></svg>
